<?xml version="1.0" encoding="UTF-8"?>
<!DOCTYPE svg PUBLIC "-//W3C//DTD SVG 1.1//EN" "http://www.w3.org/Graphics/SVG/1.1/DTD/svg11.dtd">
<!-- Creator: CorelDRAW 2018 (64-Bit) -->
<svg xmlns="http://www.w3.org/2000/svg" xml:space="preserve" width="2533px" height="1242px" version="1.1" style="shape-rendering:geometricPrecision; text-rendering:geometricPrecision; image-rendering:optimizeQuality; fill-rule:evenodd; clip-rule:evenodd"
viewBox="0 0 469.95 230.31"
 xmlns:xlink="http://www.w3.org/1999/xlink">
 <defs>
  <style type="text/css">
   <![CDATA[
    .str0 {stroke:black;stroke-width:0.17;stroke-miterlimit:22.9256}
    .fil0 {fill:white}
   ]]>
  </style>
 </defs>
 <g id="Layer_x0020_1">
  <metadata id="CorelCorpID_0Corel-Layer"/>
  <path class="fil0 str0" d="M189.39 58.62c3.7,-10.34 11.73,-19.06 22.79,-23.29 7.82,-2.98 16,-3.28 23.53,-1.35 6.57,-12.13 17.35,-22.06 31.25,-27.36 25.56,-9.75 53.66,-0.81 69.25,20.09 6.65,-10 16.37,-18.09 28.44,-22.69 30.33,-11.58 64.24,3.18 76.57,32.99 10.92,6.66 19.79,16.85 24.7,29.72 11.78,30.86 -3.69,65.42 -34.55,77.19 -15.5,5.92 -31.93,4.96 -45.94,-1.37 0.36,0.82 0.7,1.66 1.03,2.51 11.77,30.86 -3.7,65.42 -34.56,77.19 -24.38,9.3 -51.06,1.6 -67,-17.25 -6.61,9.35 -15.97,16.9 -27.48,21.29 -30.29,11.56 -64.14,-3.14 -76.52,-32.87 -4.87,12.15 -14.59,22.3 -27.78,27.33 -19.37,7.39 -40.52,1.58 -53.57,-13 -5.24,4.65 -11.4,8.45 -18.33,11.09 -30.86,11.78 -65.42,-3.69 -77.2,-34.55 -11.77,-30.86 3.7,-65.42 34.56,-77.2 1.18,-0.45 2.37,-0.86 3.56,-1.23 -4.35,-27.35 10.86,-54.95 37.77,-65.21 27.99,-10.68 59.03,1.06 73.34,26.37 3.01,-1.81 6.22,-3.39 9.61,-4.68 8.75,-3.34 17.79,-4.49 26.53,-3.72z"/>
 </g>
</svg>
