<?xml version="1.0" encoding="UTF-8"?>
<!DOCTYPE svg PUBLIC "-//W3C//DTD SVG 1.1//EN" "http://www.w3.org/Graphics/SVG/1.1/DTD/svg11.dtd">
<!-- Creator: CorelDRAW 2018 (64-Bit) -->
<svg xmlns="http://www.w3.org/2000/svg" xml:space="preserve" width="3168px" height="1784px" version="1.1" style="shape-rendering:geometricPrecision; text-rendering:geometricPrecision; image-rendering:optimizeQuality; fill-rule:evenodd; clip-rule:evenodd"
viewBox="0 0 1719.85 968.76"
 xmlns:xlink="http://www.w3.org/1999/xlink">
 <defs>
  <style type="text/css">
   <![CDATA[
    .str0 {stroke:black;stroke-width:0.49;stroke-miterlimit:22.9256}
    .fil0 {fill:white}
   ]]>
  </style>
 </defs>
 <g id="Layer_x0020_1">
  <metadata id="CorelCorpID_0Corel-Layer"/>
  <path class="fil0 str0" d="M791.48 505.2c-1.85,3.68 -3.81,7.3 -5.87,10.86 3.49,6.02 6.69,12.23 9.6,18.6 4.48,-0.81 9.04,-1.4 13.66,-1.78 0.89,-5.12 1.96,-10.18 3.2,-15.17 -7.11,-3.79 -13.98,-7.97 -20.59,-12.51zm136.53 260.59c-25.95,30.31 -64.48,49.52 -107.5,49.52 -30.38,0 -58.52,-9.58 -81.57,-25.88 -38,32.66 -87.41,52.4 -141.44,52.4 -99.36,0 -183.14,-66.73 -208.97,-157.81 -35.5,25.29 -78.94,40.17 -125.86,40.17 -117.9,0 -213.85,-93.95 -217.09,-211.07 -28.41,-36.72 -45.34,-82.78 -45.34,-132.81 0,-119.94 97.24,-217.18 217.19,-217.18 60.23,0 114.73,24.53 154.07,64.14 -0.15,-3.27 -0.23,-6.54 -0.23,-9.84 0,-119.95 97.23,-217.19 217.18,-217.19 94.74,0 175.29,60.67 204.97,145.27 34.54,-23.16 76.09,-36.67 120.8,-36.67 117.74,0 213.59,93.69 217.08,210.58 32.25,-34.9 78.4,-56.75 129.66,-56.75 75.26,0 139.51,47.11 164.9,113.44 23.82,-8.97 49.62,-13.89 76.57,-13.89 119.94,0 217.18,97.23 217.18,217.18 0,119.95 -97.24,217.18 -217.18,217.18 -4.6,0 -9.16,-0.16 -13.69,-0.44 -20.65,98.45 -107.96,172.38 -212.55,172.38 -108.8,0 -198.92,-80.02 -214.72,-184.42 -12.54,2.25 -25.46,3.43 -38.66,3.43 -33.99,0 -66.16,-7.81 -94.8,-21.74z"/>
 </g>
</svg>
