<?xml version="1.0" encoding="UTF-8"?>
<!DOCTYPE svg PUBLIC "-//W3C//DTD SVG 1.1//EN" "http://www.w3.org/Graphics/SVG/1.1/DTD/svg11.dtd">
<!-- Creator: CorelDRAW 2018 (64-Bit) -->
<svg xmlns="http://www.w3.org/2000/svg" xml:space="preserve" width="6318px" height="1164px" version="1.1" style="shape-rendering:geometricPrecision; text-rendering:geometricPrecision; image-rendering:optimizeQuality; fill-rule:evenodd; clip-rule:evenodd"
viewBox="0 0 4399.19 810.6"
 xmlns:xlink="http://www.w3.org/1999/xlink">
 <defs>
  <style type="text/css">
   <![CDATA[
    .fil0 {fill:white;fill-opacity:0.301961}
   ]]>
  </style>
 </defs>
 <g id="Layer_x0020_1">
  <metadata id="CorelCorpID_0Corel-Layer"/>
  <path class="fil0" d="M684.74 331.11c0,0 232.12,-139.27 713.76,-191.5 481.64,-52.23 591.89,168.28 882.03,208.9 290.15,40.62 1207.01,-232.11 1207.01,-232.11 0,0 -417.81,266.93 -678.94,324.96 -261.13,58.03 -754.38,92.85 -974.89,-17.41 -220.51,-110.25 -353.97,-145.07 -1148.97,-92.84z"/>
  <path class="fil0" d="M0 540.01c0,0 232.12,-139.27 713.76,-191.5 481.64,-52.22 591.89,168.29 882.03,208.91 290.15,40.62 1207.01,-232.12 1207.01,-232.12 0,0 -417.81,266.93 -678.94,324.96 -261.13,58.03 -754.38,92.85 -974.89,-17.4 -220.51,-110.26 -353.97,-145.08 -1148.97,-92.85z"/>
  <path class="fil0" d="M1133.75 645.78c0,0 232.12,-139.27 713.75,-191.5 481.64,-52.22 591.9,168.29 882.04,208.91 290.15,40.62 1207,-232.12 1207,-232.12 0,0 -417.8,266.93 -678.93,324.96 -261.13,58.03 -754.38,92.85 -974.89,-17.41 -220.51,-110.25 -353.97,-145.07 -1148.97,-92.84z"/>
  <path class="fil0" d="M1596.4 487.44c0,0 232.12,-139.27 713.75,-191.49 481.64,-52.23 591.9,168.28 882.04,208.9 290.15,40.62 1207,-232.11 1207,-232.11 0,0 -417.8,266.93 -678.93,324.96 -261.13,58.03 -754.38,92.84 -974.89,-17.41 -220.51,-110.26 -353.97,-145.07 -1148.97,-92.85z"/>
  <path class="fil0" d="M1132.17 214.71c0,0 232.11,-139.27 713.75,-191.5 481.64,-52.22 591.9,168.29 882.04,208.91 290.15,40.62 1207,-232.12 1207,-232.12 0,0 -417.8,266.93 -678.93,324.96 -261.13,58.03 -754.38,92.85 -974.89,-17.41 -220.51,-110.25 -353.98,-145.07 -1148.97,-92.84z"/>
 </g>
</svg>
