<?xml version="1.0" encoding="UTF-8"?>
<!DOCTYPE svg PUBLIC "-//W3C//DTD SVG 1.1//EN" "http://www.w3.org/Graphics/SVG/1.1/DTD/svg11.dtd">
<!-- Creator: CorelDRAW 2018 (64-Bit) -->
<svg xmlns="http://www.w3.org/2000/svg" xml:space="preserve" width="4546px" height="1891px" version="1.1" style="shape-rendering:geometricPrecision; text-rendering:geometricPrecision; image-rendering:optimizeQuality; fill-rule:evenodd; clip-rule:evenodd"
viewBox="0 0 1842.04 766.46"
 xmlns:xlink="http://www.w3.org/1999/xlink">
 <defs>
  <style type="text/css">
   <![CDATA[
    .str0 {stroke:black;stroke-width:0.36;stroke-miterlimit:22.9256}
    .fil2 {fill:#EF7F1A}
    .fil1 {fill:#EF7F1A}
    .fil0 {fill:#999999}
   ]]>
  </style>
 </defs>
 <g id="Layer_x0020_1">
  <metadata id="CorelCorpID_0Corel-Layer"/>
  <g id="_1265688674784">
   <path class="fil0 str0" d="M1742.61 698.54c0,0 0.82,51.25 97.28,67.74l-918.87 0 -918.87 0c96.45,-16.49 97.28,-67.74 97.28,-67.74l821.59 -18.82 821.59 18.82z"/>
   <circle class="fil1 str0" cx="921.02" cy="211.65" r="86.56"/>
   <rect class="fil2 str0" x="903.09" y="274.33" width="35.86" height="303.59"/>
   <path class="fil1 str0" d="M900.74 337.4c0,0 -106.39,-4.33 -106.39,-108.82 0,-104.5 106.22,-169.42 -17.11,-228.16 0,0 21.83,56.89 0,84.09 -21.83,27.21 -43.66,87.18 -43.66,137.88 0,49.15 23.83,155.8 167.16,162.31l0 -47.3z"/>
   <path class="fil1 str0" d="M913.94 337.4c0,0 -75.44,-4.33 -75.44,-108.82 0,-104.5 75.31,-169.42 -12.13,-228.16 0,0 15.48,56.89 0,84.09 -15.48,27.21 -30.97,87.18 -30.97,137.88 0,49.15 16.91,155.8 118.54,162.31l0 -47.3z"/>
   <g>
    <path class="fil1 str0" d="M940.97 337.4c0,0 106.39,-4.33 106.39,-108.82 0,-104.5 -106.21,-169.42 17.11,-228.16 0,0 -21.83,56.89 0,84.09 21.84,27.21 43.67,87.18 43.67,137.88 0,49.15 -23.84,155.8 -167.17,162.31l0 -47.3z"/>
    <path class="fil1 str0" d="M927.78 337.4c0,0 75.43,-4.33 75.43,-108.82 0,-104.5 -75.31,-169.42 12.14,-228.16 0,0 -15.48,56.89 0,84.09 15.48,27.21 30.96,87.18 30.96,137.88 0,49.15 -16.9,155.8 -118.53,162.31l0 -47.3z"/>
   </g>
   <rect class="fil2 str0" x="917.3" y="0.42" width="7.45" height="384.27"/>
   <path class="fil1 str0" d="M921.02 399.23c39.21,0 72.33,26.07 82.97,61.83l-165.94 0c10.64,-35.76 43.76,-61.83 82.97,-61.83z"/>
   <path class="fil0 str0" d="M715.74 484.01c0,0 29.68,118.71 -179.3,207.75l384.58 0 384.58 0c-208.98,-89.04 -179.3,-207.75 -179.3,-207.75l-205.28 0.62 -205.28 -0.62z"/>
   <path class="fil0 str0" d="M99.43 698.54c-25.5,0 -46.17,-20.66 -46.17,-46.16 0,-25.5 20.67,-46.17 46.17,-46.17l821.59 0 821.59 0c25.49,0 46.16,20.67 46.16,46.17 0,25.5 -20.67,46.16 -46.16,46.16l-821.59 0 -821.59 0z"/>
  </g>
 </g>
</svg>
