<?xml version="1.0" encoding="UTF-8"?>
<!DOCTYPE svg PUBLIC "-//W3C//DTD SVG 1.1//EN" "http://www.w3.org/Graphics/SVG/1.1/DTD/svg11.dtd">
<!-- Creator: CorelDRAW 2018 (64-Bit) -->
<svg xmlns="http://www.w3.org/2000/svg" xml:space="preserve" width="2803px" height="3893px" version="1.1" style="shape-rendering:geometricPrecision; text-rendering:geometricPrecision; image-rendering:optimizeQuality; fill-rule:evenodd; clip-rule:evenodd"
viewBox="0 0 1905.05 2645.45"
 xmlns:xlink="http://www.w3.org/1999/xlink">
 <defs>
  <style type="text/css">
   <![CDATA[
    .str1 {stroke:#2B2A29;stroke-width:0.61;stroke-miterlimit:22.9256}
    .str0 {stroke:black;stroke-width:0.61;stroke-miterlimit:22.9256}
    .fil13 {fill:#B2B3B3}
    .fil15 {fill:#86776F}
    .fil14 {fill:#86776F}
    .fil3 {fill:#001D23}
    .fil4 {fill:#009933}
    .fil6 {fill:#4D4D4D}
    .fil8 {fill:#507064}
    .fil7 {fill:#645045}
    .fil11 {fill:#666666}
    .fil9 {fill:gray}
    .fil10 {fill:#B3B3B3}
    .fil12 {fill:#CCCCCC}
    .fil1 {fill:#E6E6E6}
    .fil5 {fill:#FFEC99}
    .fil2 {fill:#FFEC99}
    .fil0 {fill:black;fill-rule:nonzero}
   ]]>
  </style>
 </defs>
 <g id="Layer_x0020_1">
  <metadata id="CorelCorpID_0Corel-Layer"/>
  <g id="_1265846216736">
   <polygon class="fil0" points="369.84,63.6 369.84,25.41 350.65,25.41 350.65,18.24 369.84,18.24 369.84,0 377.02,0 377.02,18.24 396.2,18.24 396.2,25.41 377.02,25.41 377.02,63.6 "/>
   <polygon class="fil0" points="1521.04,63.6 1521.04,25.41 1501.85,25.41 1501.85,18.24 1521.04,18.24 1521.04,0 1528.22,0 1528.22,18.24 1547.41,18.24 1547.41,25.41 1528.22,25.41 1528.22,63.6 "/>
   <polygon class="fil0" points="950.79,762.52 950.79,724.33 931.6,724.33 931.6,717.16 950.79,717.16 950.79,698.92 957.97,698.92 957.97,717.16 977.16,717.16 977.16,724.33 957.97,724.33 957.97,762.52 "/>
   <path class="fil1 str0" d="M515.15 969.82c0,0 43.65,44.29 77.82,42.39 34.17,-1.9 48.08,-12.66 76.55,-31.64 27.12,-18.07 262.52,-208.32 284.86,-226.38l0 -1.38 0.85 0.69 0.86 -0.69 0 1.38c22.34,18.06 257.74,208.31 284.85,226.38 28.47,18.98 42.39,29.74 76.56,31.64 34.16,1.9 65.41,-42.39 65.41,-42.39l-0.24 154.37 -22.78 48.08 -403.8 5.04 0 0.03 -0.86 -0.02 -0.85 0.02 0 -0.03 -403.8 -5.04 -101.23 -48.08 65.8 -154.37z"/>
   <rect class="fil2 str0" x="231.71" y="575.96" width="283.44" height="492.23"/>
   <rect class="fil2 str0" x="1382.91" y="575.96" width="283.44" height="492.23"/>
   <polygon class="fil3 str0" points="1524.63,44.51 1576.83,310.23 1629.02,575.96 1524.63,575.96 1420.24,575.96 1472.43,310.23 "/>
   <polygon class="fil4 str0" points="145.64,2539.66 0.97,2641.5 1904.07,2641.5 1769.73,2548.52 "/>
   <path class="fil1 str0" d="M1704.71 1576.55l0 -48.72 -13.82 -23.93 -14.01 -372.12 12.65 -23.41 12.65 -21.51 -5.69 -23.41 -29.11 -9.49 -56.94 0.63 -149.31 -3.16c0,0 -20.88,-6.33 -25.31,-5.06 -4.43,1.26 -77.82,-1.9 -77.82,-1.9l-31 25.94c-286.55,-7.3 -456.98,-7.3 -743.53,0l-31.01 -25.94c0,0 -73.39,3.16 -77.81,1.9 -4.43,-1.27 -25.31,5.06 -25.31,5.06l-149.32 3.16 -56.94 -0.63 -29.1 9.49 -5.69 23.41 12.65 21.51 12.65 23.41 -14.01 372.12 -13.82 23.93 0 48.72 110.72 136.03 -115.15 788.32 753.21 19.24 0.69 -653.81 0.7 653.81 753.21 -19.24 -115.15 -788.32 110.72 -136.03z"/>
   <polygon class="fil2 str0" points="536.19,1139.85 561.5,1147.44 569.09,1162 558.34,1511.24 538.09,1501.11 "/>
   <polygon class="fil2 str0" points="636.16,1163.26 788,1158.83 795.59,1515.03 768.39,1518.19 767.12,1240.45 772.18,1227.16 768.39,1218.94 655.14,1220.83 649.44,1230.96 657.67,1244.24 654.5,1521.36 629.2,1518.19 631.73,1182.87 "/>
   <polygon class="fil2 str0" points="676.65,1270.18 750.67,1270.82 747.51,1423.29 675.38,1423.29 "/>
   <polygon class="fil2 str0" points="675.38,1441.64 749.41,1442.91 748.14,1506.17 675.38,1504.91 "/>
   <polygon class="fil2 str0" points="346.39,1430.25 427.37,1429.62 422.94,1494.79 348.92,1494.79 "/>
   <polygon class="fil2 str0" points="916.42,1438.7 990.44,1439.96 989.18,1503.23 916.42,1501.97 "/>
   <path class="fil3 str0" d="M913.27 1420.13l0 -146.78c2.54,-27.86 76.92,-27.68 79.46,0l0 146.78c-26.49,0 -52.97,0 -79.46,0z"/>
   <polygon class="fil2 str0" points="896.99,1517.56 895.09,1245.51 887.97,1243.13 887.97,1222.73 931.46,1199.79 971.96,1199.79 1013.4,1225.1 1014.03,1239.34 1006.44,1241.55 1006.44,1515.19 1055.47,1515.19 1055.47,1171.64 1040.29,1152.66 856.18,1152.66 847.95,1162.15 847.95,1509.49 854.28,1515.19 "/>
   <polygon class="fil2 str0" points="1596.13,1151.24 1432.27,1145.55 1434.8,1492.89 1448.08,1504.28 1463.9,1505.54 1461.37,1206.92 1568.92,1208.18 1577.15,1504.91 1614.48,1504.28 "/>
   <polygon class="fil2 str0" points="1372.79,1139.85 1347.49,1147.44 1339.89,1162 1350.65,1511.24 1370.9,1501.11 "/>
   <polygon class="fil2 str0" points="1272.83,1163.26 1120.99,1158.83 1113.4,1515.03 1140.6,1518.19 1141.87,1240.45 1136.8,1227.16 1140.6,1218.94 1253.85,1220.83 1259.55,1230.96 1251.32,1244.24 1254.48,1521.36 1279.79,1518.19 1277.26,1182.87 "/>
   <polygon class="fil2 str0" points="1232.34,1270.18 1158.32,1270.82 1161.48,1423.29 1233.61,1423.29 "/>
   <polygon class="fil2 str0" points="1233.61,1441.64 1159.58,1442.91 1160.85,1506.17 1233.61,1504.91 "/>
   <polygon class="fil2 str0" points="1562.6,1430.25 1481.62,1429.62 1486.05,1494.79 1560.07,1494.79 "/>
   <polygon class="fil2 str0" points="232.77,1153.53 219.58,1503.9 206.03,1527.37 205.93,1529.58 238.83,1502.38 255.91,1155.67 "/>
   <polygon class="fil2 str0" points="1702.84,1524.61 1690.89,1503.9 1677.69,1153.39 1653.07,1155.67 1670.15,1502.38 1703.05,1529.58 "/>
   <polygon class="fil2 str0" points="312.86,1151.24 476.72,1145.55 474.19,1492.89 460.9,1504.28 445.09,1505.54 447.62,1206.92 340.06,1208.18 331.84,1504.91 294.51,1504.28 "/>
   <path class="fil1 str0" d="M1755.97 2472.59l-2.84 -38.27 -13.92 -0.64 0 -14.55 -20.25 -1.9 0 -719.36 -1.26 -30.36 -10.13 -0.64 3.17 -23.41 35.43 -44.92 -3.8 -20.24 -18.98 -6.33 -107.56 0c0,0 -6.95,-37.33 -72.12,-37.33 -65.17,0 -63.27,31.64 -63.27,31.64l-113.88 0 -31.64 17.71 -299.89 0 -67.69 -45.55 -11.25 -6.87 0 -1.04 -0.86 0.52 -0.85 -0.52 0 1.04 -11.25 6.87 -67.69 45.55 -299.9 0 -31.63 -17.71 -113.88 0c0,0 1.9,-31.64 -63.27,-31.64 -65.17,0 -72.12,37.33 -72.12,37.33l-107.56 0 -18.98 6.33 -3.8 20.24 35.43 44.92 3.17 23.41 -10.13 0.64 -1.26 30.36 0 719.36 -20.25 1.9 0 14.55 -13.92 0.64 -2.85 38.27 799.89 47.45 0 0.1 0.85 -0.05 0.86 0.05 0 -0.1 799.88 -47.45z"/>
   <path class="fil5 str0" d="M1739.21 2424.89l0 -5.76 -20.25 -1.9 0 -710.44 -1.19 -0.72 -25.94 22.78 12.66 685.19 34.72 10.85zm-1547.7 -717.5l0 709.84 -20.25 1.9 0 6.08 35.73 -11.17 12.65 -685.19 -25.94 -22.78 -2.19 1.32zm1420.6 -3.22l12.66 13.92 15.18 704.81 -13.92 46.82 -26.57 0 -124.01 0 -12.65 -40.5 -15.18 -697.21 15.18 -30.37 149.31 2.53zm-239.15 -4.43l-22.77 8.86 0.94 723.15 36.7 -1.27 -14.87 -730.74zm-95.85 16.44l-144.25 0 -8.23 25.94 -4.43 742.77 154.37 1.27 2.53 -44.29 12.66 -6.33 -12.65 -719.36zm-416.24 -5.69l182.22 0 6.64 16.77 5.69 9.17 1.9 353.35 -199.92 17.08 3.47 -396.37zm-226.5 5.69l144.25 0 8.23 25.94 4.43 742.77 -154.37 1.27 -2.54 -44.29 -12.65 -6.33 12.65 -719.36zm-95.85 -16.44l22.77 8.86 -0.94 723.15 -36.7 -1.27 14.87 -730.74zm-239.16 4.43l-12.65 13.92 -15.18 704.81 13.92 46.82 26.57 0 124 0 12.66 -40.5 15.18 -697.21 -15.18 -30.37 -149.32 2.53z"/>
   <polygon class="fil6 str0" points="145.64,2539.66 154.49,2472.59 1762.77,2472.59 1769.73,2548.52 "/>
   <rect class="fil7 str0" x="1498.77" y="2310.79" width="121.15" height="221.72"/>
   <path class="fil8 str0" d="M1125.8 2116.64c0,0 5.44,-12.24 -5.43,-14.61 -10.88,-2.37 -44.66,-1.98 -53.59,-5.14 -8.93,-3.15 -31.84,-28.81 -36.89,-36.32 -5.05,-7.5 -34.18,-39.09 -40.39,-40.66 -25.3,-6.43 -43.23,-6.43 -68.53,0 -6.21,1.57 -35.34,33.16 -40.39,40.66 -5.05,7.51 -27.96,33.17 -36.89,36.32 -8.93,3.16 -42.71,2.77 -53.59,5.14 -10.87,2.37 -5.43,14.61 -5.43,14.61l94.16 20.92 76.4 -55.83 76.41 55.83 94.16 -20.92z"/>
   <path class="fil5 str0" d="M1117.45 2498.43l0 -351c0,0 13.98,-19.74 13.98,-28.42 0,-8.69 -21.75,-15 -35.73,-15 -13.98,0 -52.81,0 -52.81,0 0,0 -25.12,-21.71 -86.8,-22.87l0 -0.03 -0.86 0.01 -0.85 -0.01 0 0.03c-61.68,1.16 -86.8,22.87 -86.8,22.87 0,0 -38.83,0 -52.81,0 -13.98,0 -35.73,6.31 -35.73,15 0,8.68 13.98,28.42 13.98,28.42l0 351 14.83 45.41 57.21 1.16 90.17 -24.62 90.18 24.62 57.21 -1.16 14.83 -45.41z"/>
   <ellipse class="fil9 str0" cx="1471.61" cy="2529.22" rx="16.31" ry="16.58"/>
   <rect class="fil9 str0" x="1452.97" y="2589.23" width="90.87" height="55.27"/>
   <polygon class="fil9 str0" points="1425.01,2580.55 1452.97,2589.23 1543.84,2589.23 1480.19,2543.33 1463.34,2543.52 "/>
   <polygon class="fil9 str0" points="460.37,2644.51 953.06,2644.51 957.41,2644.51 1450.1,2644.51 1450.1,2589.23 1418.45,2584.89 1330.11,2579.56 1204.69,2546.99 1115.22,2520.14 957.41,2520.14 953.06,2520.14 795.25,2520.14 705.78,2546.99 580.36,2579.56 492.01,2584.89 460.37,2589.24 "/>
   <path class="fil9 str0" d="M1452.97 2589.23c0,0 -280.36,1.58 -352.59,-90.8l47.37 0c0,0 95.53,81.33 277.26,82.12l27.96 8.68z"/>
   <rect class="fil3 str0" x="1523.42" y="2369.45" width="71.84" height="161.48"/>
   <path class="fil10 str0" d="M1628.78 2336.61l-35.94 0c0,0 -14.6,-25.82 -34.06,-25.82 -19.46,0 -30.69,25.08 -30.69,25.08l-38.19 0 0 -12.73 26.21 0c0,0 11.6,-26.58 41.92,-26.58 30.32,0 42.68,26.2 42.68,26.2l28.07 0 0 13.85z"/>
   <rect class="fil7 str0" x="290.55" y="2310.79" width="121.15" height="221.72"/>
   <ellipse class="fil9 str0" cx="438.86" cy="2529.22" rx="16.31" ry="16.58"/>
   <rect class="fil9 str0" x="366.63" y="2589.23" width="90.87" height="55.27"/>
   <polygon class="fil9 str0" points="485.46,2580.55 457.5,2589.23 366.63,2589.23 430.28,2543.33 447.13,2543.52 "/>
   <rect class="fil11 str0" x="723.02" y="2533.56" width="423.44" height="7.11"/>
   <rect class="fil11 str0" x="677.63" y="2552.12" width="514.22" height="7.11"/>
   <rect class="fil11 str0" x="590.3" y="2570.68" width="688.87" height="7.11"/>
   <rect class="fil11 str0" x="590.3" y="2589.23" width="688.87" height="7.11"/>
   <rect class="fil11 str0" x="590.3" y="2607.79" width="688.87" height="7.11"/>
   <rect class="fil11 str0" x="590.3" y="2626.35" width="710.25" height="7.11"/>
   <path class="fil9 str0" d="M457.5 2644.51c0,0 249.33,16.98 373.96,-124.37l0 -22.9 -21.37 0 -86.19 47.77 -126.19 29.3 -140.21 14.92 0 55.28z"/>
   <path class="fil9 str0" d="M457.5 2589.23c0,0 280.36,1.58 352.59,-90.8l-47.38 0c0,0 -95.52,81.33 -277.25,82.12l-27.96 8.68z"/>
   <rect class="fil3 str0" x="315.21" y="2369.45" width="71.84" height="161.48"/>
   <path class="fil10 str0" d="M281.69 2336.61l35.93 0c0,0 14.6,-25.82 34.07,-25.82 19.46,0 30.69,25.08 30.69,25.08l38.18 0 0 -12.73 -26.2 0c0,0 -11.6,-26.58 -41.92,-26.58 -30.32,0 -42.68,26.2 -42.68,26.2l-28.07 0 0 13.85z"/>
   <path class="fil12 str0" d="M954.38 2146.27l0 0.07c-48.02,2.45 -96.14,37.64 -96.14,88.36 0,51.33 0,285.44 0,285.44l96.14 0 1.71 0 96.14 0c0,0 0,-234.11 0,-285.44 0,-50.72 -48.12,-85.91 -96.14,-88.36l0 -0.07 -0.86 0.03 -0.85 -0.03z"/>
   <rect class="fil3 str0" x="357.15" y="1243.59" width="69.59" height="158.8"/>
   <rect class="fil3 str0" x="1485.85" y="1243.59" width="69.59" height="158.8"/>
   <path class="fil9 str0" d="M1452.97 2644.51c0,0 -249.33,16.98 -373.96,-124.37l0 -22.9 21.37 0 86.19 47.77 126.19 29.3 140.21 14.92 0 55.28z"/>
   <polygon class="fil2 str0" points="683.96,1058.29 952.79,843.2 1219.28,1057.08 1131.31,1058.35 1132.09,1048.24 1039.73,1046.92 1039.63,1053.88 874.44,1056.58 873.93,1048.35 784.69,1049.6 784.57,1057.83 "/>
   <polygon class="fil3 str0" points="1524.63,479.16 1606.27,527.56 1687.91,575.96 1524.63,575.96 1361.35,575.96 1442.99,527.56 "/>
   <polygon class="fil3 str0" points="373.43,44.51 425.62,310.23 477.82,575.96 373.43,575.96 269.04,575.96 321.23,310.23 "/>
   <polygon class="fil3 str0" points="373.43,479.16 455.07,527.56 536.71,575.96 373.43,575.96 210.15,575.96 291.79,527.56 "/>
   <path class="fil3 str0" d="M895.44 2520.14l119.58 0 0 -227.76c0,0 0.63,-12.66 -11.39,-12.66 -12.02,0 -43.14,0 -43.14,0 0,0 -45.44,0 -52.4,0 -6.95,0 -9.8,6.01 -9.8,10.12 0,4.12 -2.85,230.3 -2.85,230.3z"/>
   <path class="fil1 str0" d="M704.69 2145.64c21.31,0 38.59,17.28 38.59,38.59 0,21.32 -17.28,38.6 -38.59,38.6 -21.32,0 -38.6,-17.28 -38.6,-38.6 0,-21.31 17.28,-38.59 38.6,-38.59zm0 -20.88c32.84,0 59.47,26.63 59.47,59.47 0,32.85 -26.63,59.48 -59.47,59.48 -32.85,0 -59.47,-26.63 -59.47,-59.48 0,-32.84 26.62,-59.47 59.47,-59.47zm-381.2 112.3c0,0 41.13,-32.27 82.89,0.63l0 -185.37 -82.89 0 0 184.74zm7.12 -15.81c0,0 34.06,-26.72 68.65,0.53l0 -153.55 -68.65 0 0 153.02z"/>
   <path class="fil1 str0" d="M644.58 2017.84c1.93,-0.52 122.74,0 122.74,0l0 -17.72 -6.32 -0.31c0,0 3.79,-164.58 0,-178.73 -3.8,-14.16 -11.39,-22.46 -11.39,-22.46l24.36 -16.45c0,0 -27.41,-38.05 -65.9,-38.05 -38.5,0 -68.87,39.31 -68.87,39.31l22.47 13.6c0,0 -12.34,12.97 -12.34,28.16 0,15.18 -4.75,192.65 -4.75,192.65z"/>
   <path class="fil13 str0" d="M664.51 2001.7l83.51 0c0,0 0,-156.27 0,-172.72 0,-16.45 -19.61,-32.26 -38.59,-32.26 -18.98,0 -37.33,15.81 -41.12,29.1 -3.8,13.28 -3.8,175.88 -3.8,175.88z"/>
   <path class="fil1 str0" d="M311.47 2006.77l112.62 0 0 -239.16 13.29 -14.55c0,0 -19.62,-21.51 -62.01,-21.51 -42.39,0 -70.86,23.41 -70.86,23.41l15.19 20.88 -8.23 230.93z"/>
   <path class="fil3 str0" d="M329.82 1989.68l79.72 0 0 -196.76c0,0 -18.98,-10.76 -37.33,-10.76 -18.35,0 -36.7,10.76 -36.7,10.76l-5.69 196.76z"/>
   <polygon class="fil1 str1" points="882.94,2003.12 887.69,1772.83 920.27,1748.78 950.96,1746.57 981.64,1748.78 1014.22,1772.83 1018.97,2003.12 1018.97,2007.86 950.96,2007.86 882.94,2007.86 "/>
   <path class="fil1 str0" d="M1024.35 1772.83l-20.25 0c0,0 -14.55,-24.05 -53.14,-24.05 -38.6,0 -53.15,24.05 -53.15,24.05l-20.24 0 1.89 -16.77 16.77 0c20.56,-21.51 54.73,-21.51 54.73,-21.51 0,0 34.16,0 54.73,21.51l16.76 0 1.9 16.77z"/>
   <path class="fil3 str0" d="M898.92 2002.8l104.08 0c0,0 -2.57,-142.03 -2.9,-160.7 -0.34,-18.66 -19.16,-44.6 -49.21,-44.6 -30.05,0 -50.78,25.94 -50.5,41.12 0.27,15.19 -1.47,164.18 -1.47,164.18z"/>
   <path class="fil1 str0" d="M1263.07 2017.84c-1.93,-0.52 -122.74,0 -122.74,0l0 -17.72 6.33 -0.31c0,0 -3.8,-164.58 0,-178.73 3.79,-14.16 11.39,-22.46 11.39,-22.46l-24.36 -16.45c0,0 27.4,-38.05 65.89,-38.05 38.5,0 68.87,39.31 68.87,39.31l-22.46 13.6c0,0 12.34,12.97 12.34,28.16 0,15.18 4.74,192.65 4.74,192.65z"/>
   <path class="fil13 str0" d="M1243.14 2001.7l-83.51 0c0,0 0,-156.27 0,-172.72 0,-16.45 19.61,-32.26 38.59,-32.26 18.98,0 37.33,15.81 41.13,29.1 3.79,13.28 3.79,175.88 3.79,175.88z"/>
   <path class="fil1 str0" d="M1596.18 2006.77l-112.62 0 0 -239.16 -13.28 -14.55c0,0 19.61,-21.51 62,-21.51 42.39,0 70.86,23.41 70.86,23.41l-15.19 20.88 8.23 230.93z"/>
   <path class="fil3 str0" d="M1577.83 1989.68l-79.72 0 0 -196.76c0,0 18.98,-10.76 37.33,-10.76 18.35,0 36.7,10.76 36.7,10.76l5.69 196.76z"/>
   <path class="fil1 str0" d="M1203.44 2145.64c-21.32,0 -38.6,17.28 -38.6,38.59 0,21.32 17.28,38.6 38.6,38.6 21.31,0 38.59,-17.28 38.59,-38.6 0,-21.31 -17.28,-38.59 -38.59,-38.59zm0 -20.88c-32.85,0 -59.47,26.63 -59.47,59.47 0,32.85 26.62,59.48 59.47,59.48 32.84,0 59.47,-26.63 59.47,-59.48 0,-32.84 -26.63,-59.47 -59.47,-59.47zm381.19 112.3c0,0 -41.12,-32.27 -82.88,0.63l0 -185.37 82.88 0 0 184.74zm-7.11 -15.81c0,0 -34.07,-26.72 -68.66,0.53l0 -153.55 68.66 0 0 153.02z"/>
   <path class="fil14 str0" d="M359.61 1668.39c0,0 18.98,-0.63 23.41,-13.28 4.43,-12.66 1.9,-19.62 5.06,-24.68 3.17,-5.06 8.23,-16.45 8.23,-22.78 0,-6.32 -12.02,-13.91 -12.02,-13.91l-12.02 -12.66c0,0 -2.85,-17.08 -13.61,-17.08 -10.75,0 -12.97,22.14 -12.97,22.14 0,0 -16.76,8.54 -18.98,13.29 -2.21,4.75 -4.11,9.17 -3.16,12.34 0.95,3.16 4.43,6.96 5.06,10.75 0.63,3.8 -0.95,4.12 2.85,12.66 3.79,8.54 8.22,13.28 10.12,14.55 1.9,1.26 2.85,-0.32 4.11,3.48 1.27,3.79 2.22,6.64 3.48,8.86 1.27,2.21 10.44,6.32 10.44,6.32z"/>
   <polygon class="fil15 str0" points="898.03,1597.85 896.13,1614.3 866.39,1650.99 867.66,1675.67 951.01,1675.67 1034.36,1675.67 1035.62,1650.99 1005.89,1614.3 1003.99,1597.85 951.01,1567.01 "/>
   <path class="fil14 str0" d="M1552.41 1668.39c0,0 -18.98,-0.63 -23.41,-13.28 -4.43,-12.66 -1.9,-19.62 -5.06,-24.68 -3.17,-5.06 -8.23,-16.45 -8.23,-22.78 0,-6.32 12.02,-13.91 12.02,-13.91l12.02 -12.66c0,0 2.85,-17.08 13.61,-17.08 10.75,0 12.97,22.14 12.97,22.14 0,0 16.76,8.54 18.98,13.29 2.21,4.75 4.11,9.17 3.16,12.34 -0.95,3.16 -4.43,6.96 -5.06,10.75 -0.63,3.8 0.95,4.12 -2.85,12.66 -3.79,8.54 -8.22,13.28 -10.12,14.55 -1.9,1.26 -2.85,-0.32 -4.11,3.48 -1.27,3.79 -2.21,6.64 -3.48,8.86 -1.27,2.21 -10.44,6.32 -10.44,6.32z"/>
   <path class="fil1 str0" d="M918.58 1026.98c1.02,-0.27 64.78,0 64.78,0l0 -9.35 -3.34 -0.17c0,0 2,-86.85 0,-94.32 -2,-7.47 -6.01,-11.85 -6.01,-11.85l12.85 -8.69c0,0 -14.46,-20.07 -34.77,-20.07 -20.32,0 -36.35,20.74 -36.35,20.74l11.86 7.18c0,0 -6.51,6.84 -6.51,14.86 0,8.01 -2.51,101.67 -2.51,101.67z"/>
   <path class="fil1 str0" d="M339.11 993.06l74.02 0 0 51.88 -74.02 0 0 -51.88zm167.97 -342.6l-57.51 0c-7.83,-35.82 -39.72,-62.64 -77.88,-62.64 -38.17,0 -70.06,26.82 -77.88,62.64l-54.03 0 0 43.65 56.73 0c10.95,30.96 40.47,53.15 75.18,53.15 34.71,0 64.23,-22.19 75.17,-53.15l60.22 0 0 -43.65zm-47.45 63.58c0,0 -12.34,39.55 -57.89,42.08 0,0 26.57,8.54 26.57,32.58l30.69 0 0.63 -74.66zm8.86 86.05l-46.52 0c-2.96,-23.64 -25.97,-36.5 -48.84,-35.71 -23.22,0.8 -44.64,11.22 -46.79,35.71l-47.97 0 0 -87.95 -33.54 0 0 332.8 33.54 0 0 -235.36 13.28 0 0 227.76 25.31 0 0 -227.76 9.2 0 0 157.22 0 13.02 96.75 1.74 0 -13.5c0,-27.59 -0.03,-55.18 -0.1,-82.77 -0.04,-17.1 -0.09,-34.2 -0.19,-51.3 -0.04,-8.09 -0.01,-16.29 -0.19,-24.41l7.46 0 0 227.76 25.31 0 0 -227.76 13.29 0 0 235.36 33.53 0 0 -332.8 -33.53 0 0 87.95zm-129.07 166.71c0,0 0,-143.62 0,-162.6 0,-18.98 15.82,-25.94 34.17,-26.57 18.34,-0.63 34.79,9.49 35.43,26.57 0.63,17.08 0.63,163.86 0.63,163.86l-70.23 -1.26zm32.27 -350.36c28.22,0 51.09,22.88 51.09,51.1 0,28.22 -22.87,51.1 -51.09,51.1 -28.22,0 -51.1,-22.88 -51.1,-51.1 0,-28.22 22.88,-51.1 51.1,-51.1zm-84.47 97.6c0,0 12.34,39.55 57.9,42.08 0,0 -26.58,8.54 -26.58,32.58l-30.68 0 -0.64 -74.66z"/>
   <path class="fil1 str0" d="M1490.31 993.06l74.02 0 0 51.88 -74.02 0 0 -51.88zm167.97 -342.6l-57.51 0c-7.82,-35.82 -39.72,-62.64 -77.88,-62.64 -38.16,0 -70.06,26.82 -77.88,62.64l-54.03 0 0 43.65 56.73 0c10.95,30.96 40.47,53.15 75.18,53.15 34.71,0 64.23,-22.19 75.18,-53.15l60.21 0 0 -43.65zm-47.45 63.58c0,0 -12.34,39.55 -57.89,42.08 0,0 26.57,8.54 26.57,32.58l30.69 0 0.63 -74.66zm8.86 86.05l-46.52 0c-2.96,-23.64 -25.97,-36.5 -48.84,-35.71 -23.22,0.8 -44.64,11.22 -46.79,35.71l-47.97 0 0 -87.95 -33.53 0 0 332.8 33.53 0 0 -235.36 13.28 0 0 227.76 25.31 0 0 -227.76 9.2 0 0 157.22 0 13.02 96.75 1.74 0 -13.5c0,-27.59 -0.03,-55.18 -0.1,-82.77 -0.04,-17.1 -0.08,-34.2 -0.19,-51.3 -0.04,-8.09 -0.01,-16.29 -0.18,-24.41l7.46 0 0 227.76 25.3 0 0 -227.76 13.29 0 0 235.36 33.53 0 0 -332.8 -33.53 0 0 87.95zm-129.07 166.71c0,0 0,-143.62 0,-162.6 0,-18.98 15.82,-25.94 34.17,-26.57 18.34,-0.63 34.79,9.49 35.43,26.57 0.63,17.08 0.63,163.86 0.63,163.86l-70.23 -1.26zm32.27 -350.36c28.22,0 51.1,22.88 51.1,51.1 0,28.22 -22.88,51.1 -51.1,51.1 -28.22,0 -51.1,-22.88 -51.1,-51.1 0,-28.22 22.88,-51.1 51.1,-51.1zm-84.47 97.6c0,0 12.34,39.55 57.9,42.08 0,0 -26.58,8.54 -26.58,32.58l-30.68 0 -0.64 -74.66z"/>
  </g>
 </g>
</svg>
