<?xml version="1.0" encoding="UTF-8"?>
<!DOCTYPE svg PUBLIC "-//W3C//DTD SVG 1.1//EN" "http://www.w3.org/Graphics/SVG/1.1/DTD/svg11.dtd">
<!-- Creator: CorelDRAW 2018 (64-Bit) -->
<svg xmlns="http://www.w3.org/2000/svg" xml:space="preserve" width="1078px" height="8010px" version="1.1" style="shape-rendering:geometricPrecision; text-rendering:geometricPrecision; image-rendering:optimizeQuality; fill-rule:evenodd; clip-rule:evenodd"
viewBox="0 0 54.87 407.64"
 xmlns:xlink="http://www.w3.org/1999/xlink">
 <defs>
  <style type="text/css">
   <![CDATA[
    .str0 {stroke:black;stroke-width:0.45;stroke-miterlimit:22.9256}
    .str1 {stroke:black;stroke-width:0.05;stroke-miterlimit:22.9256}
    .fil0 {fill:none}
    .fil8 {fill:#FEFEFE}
    .fil5 {fill:#00A0E3}
    .fil6 {fill:#4D4D4D}
    .fil2 {fill:#666666}
    .fil1 {fill:#999999}
    .fil9 {fill:#C70000}
    .fil10 {fill:#CCCCCC}
    .fil4 {fill:#E6E6E6}
    .fil12 {fill:white}
    .fil7 {fill:black;fill-rule:nonzero}
    .fil3 {fill:#4D4D4D;fill-rule:nonzero}
    .fil11 {fill:#C70000;fill-rule:nonzero}
   ]]>
  </style>
 </defs>
 <g id="Layer_x0020_1">
  <metadata id="CorelCorpID_0Corel-Layer"/>
  <g id="_1265657207040">
   <line class="fil0 str0" x1="27.54" y1="11.6" x2="27.54" y2= "0" />
   <rect class="fil1 str1" x="17.89" y="149.66" width="19.08" height="257.96"/>
   <rect class="fil2 str1" x="0.48" y="162.7" width="53.91" height="38.65"/>
   <rect class="fil2 str1" x="0.48" y="217.57" width="53.91" height="9.07"/>
   <rect class="fil2 str1" x="0.48" y="147.91" width="53.91" height="3.18"/>
   <rect class="fil2 str1" x="17.41" y="132.49" width="20.04" height="15.43"/>
   <polygon class="fil3 str1" points="27.89,151.09 27.89,162.7 26.98,162.7 26.98,151.09 "/>
   <polygon class="fil3 str1" points="19.21,151.09 19.21,162.7 18.31,162.7 18.31,151.09 "/>
   <polygon class="fil3 str1" points="10.54,151.09 10.54,162.7 9.64,162.7 9.64,151.09 "/>
   <polygon class="fil3 str1" points="1.86,151.09 1.86,162.7 0.96,162.7 0.96,151.09 "/>
   <polygon class="fil3 str1" points="54.03,151.09 54.03,162.7 53.13,162.7 53.13,151.09 "/>
   <polygon class="fil3 str1" points="45.72,151.09 45.72,162.7 44.82,162.7 44.82,151.09 "/>
   <polygon class="fil3 str1" points="37.04,151.09 37.04,162.7 36.14,162.7 36.14,151.09 "/>
   <g>
    <circle class="fil4" cx="39.76" cy="155.39" r="7.16"/>
    <circle class="fil4" cx="52.96" cy="152.05" r="1.91"/>
    <circle class="fil4" cx="50.73" cy="159.2" r="1.75"/>
    <circle class="fil4" cx="4.93" cy="158.81" r="4.93"/>
   </g>
   <rect class="fil5 str1" x="0.48" y="185.31" width="4.15" height="5.88"/>
   <rect class="fil5 str1" x="0.48" y="169.96" width="4.15" height="5.88"/>
   <rect class="fil5 str1" x="4.62" y="185.31" width="4.15" height="5.88"/>
   <rect class="fil5 str1" x="4.62" y="169.96" width="4.15" height="5.88"/>
   <rect class="fil5 str1" x="8.77" y="185.31" width="4.15" height="5.88"/>
   <rect class="fil5 str1" x="8.77" y="169.96" width="4.15" height="5.88"/>
   <rect class="fil5 str1" x="12.92" y="185.31" width="4.15" height="5.88"/>
   <rect class="fil5 str1" x="12.92" y="169.96" width="4.15" height="5.88"/>
   <rect class="fil5 str1" x="17.07" y="185.31" width="4.15" height="5.88"/>
   <rect class="fil5 str1" x="17.07" y="169.96" width="4.15" height="5.88"/>
   <rect class="fil5 str1" x="21.21" y="185.31" width="4.15" height="5.88"/>
   <rect class="fil5 str1" x="21.21" y="169.96" width="4.15" height="5.88"/>
   <rect class="fil5 str1" x="25.36" y="185.31" width="4.15" height="5.88"/>
   <rect class="fil5 str1" x="25.36" y="169.96" width="4.15" height="5.88"/>
   <rect class="fil5 str1" x="29.51" y="185.31" width="4.15" height="5.88"/>
   <rect class="fil5 str1" x="29.51" y="169.96" width="4.15" height="5.88"/>
   <rect class="fil5 str1" x="33.66" y="185.31" width="4.15" height="5.88"/>
   <rect class="fil5 str1" x="33.66" y="169.96" width="4.15" height="5.88"/>
   <rect class="fil5 str1" x="37.8" y="185.31" width="4.15" height="5.88"/>
   <rect class="fil5 str1" x="37.8" y="169.96" width="4.15" height="5.88"/>
   <rect class="fil5 str1" x="41.95" y="185.31" width="4.15" height="5.88"/>
   <rect class="fil5 str1" x="41.95" y="169.96" width="4.15" height="5.88"/>
   <rect class="fil5 str1" x="46.1" y="185.31" width="4.15" height="5.88"/>
   <rect class="fil5 str1" x="46.1" y="169.96" width="4.15" height="5.88"/>
   <rect class="fil5 str1" x="50.24" y="185.31" width="4.15" height="5.88"/>
   <rect class="fil5 str1" x="50.24" y="169.96" width="4.15" height="5.88"/>
   <polygon class="fil6 str1" points="12.13,245.64 12.13,250.47 15.94,250.47 20.87,245.22 42.74,244.75 42.74,239.58 20.79,240.37 15.31,245.7 "/>
   <polygon class="fil6 str1" points="12.13,263.49 12.13,268.32 15.94,268.32 20.87,263.08 42.74,262.6 42.74,257.43 20.79,258.23 15.31,263.55 "/>
   <polygon class="fil6 str1" points="12.13,281.35 12.13,286.18 15.94,286.18 20.87,280.93 42.74,280.45 42.74,275.28 20.79,276.08 15.31,281.4 "/>
   <polygon class="fil6 str1" points="12.13,299.2 12.13,304.03 15.94,304.03 20.87,298.78 42.74,298.3 42.74,293.13 20.79,293.93 15.31,299.26 "/>
   <polygon class="fil6 str1" points="12.13,317.05 12.13,321.88 15.94,321.88 20.87,316.63 42.74,316.15 42.74,310.99 20.79,311.78 15.31,317.11 "/>
   <polygon class="fil6 str1" points="12.13,334.9 12.13,339.73 15.94,339.73 20.87,334.48 42.74,334.01 42.74,328.84 20.79,329.63 15.31,334.96 "/>
   <polygon class="fil6 str1" points="12.13,352.75 12.13,357.58 15.94,357.58 20.87,352.34 42.74,351.86 42.74,346.69 20.79,347.48 15.31,352.81 "/>
   <polygon class="fil6 str1" points="12.13,370.6 12.13,375.44 15.94,375.44 20.87,370.19 42.74,369.71 42.74,364.54 20.79,365.34 15.31,370.66 "/>
   <path class="fil7" d="M8.75 203.69l37.67 0 0 8.8 -37.97 0 0 -8.8 0.3 0zm37.07 0.61l-36.77 0 0 7.58 36.77 0 0 -7.58z"/>
   <g>
    <ellipse class="fil8 str1" cx="13.1" cy="211.33" rx="2.27" ry="3.44"/>
    <ellipse class="fil8 str1" cx="18.91" cy="203.1" rx="1.43" ry="1.85"/>
    <ellipse class="fil8 str1" cx="14.07" cy="203.18" rx="0.82" ry="1.53"/>
    <ellipse class="fil8 str1" cx="8.99" cy="204.63" rx="1.77" ry="2.78"/>
    <ellipse class="fil8 str1" cx="8.49" cy="211.21" rx="1.27" ry="2.8"/>
    <ellipse class="fil8 str1" cx="42.44" cy="204.99" rx="2.03" ry="2.35"/>
    <ellipse class="fil8 str1" cx="45.66" cy="205.56" rx="1.99" ry="2.56"/>
   </g>
   <g>
    <path class="fil9" d="M23.46 132.49l1.11 0 2.31 0 1.11 0 2.31 0 1.11 0 0 -1.12 0 -12.09 0 -1.11 -1.11 0 -2.31 0 -1.11 0 -2.31 0 -1.11 0 0 1.11 0 12.09 0 1.12zm1.78 -13.21l1.64 1.63 0 -1.63 -1.64 0zm2.93 2.92l2.13 2.11 0 -4.22 -2.13 2.11zm1.62 3.17l-1.8 -1.78 0 3.57 1.8 -1.79zm-3.2 -3.17l-2.02 -2.01 0 4.02 2.02 -2.01zm-1.61 3.17l1.9 1.89 0 -3.78 -1.9 1.89zm3.19 3.18l2.13 2.11 0 -4.22 -2.13 2.11zm1.26 2.82l-1.44 -1.43 0 1.43 1.44 0zm-2.84 -2.82l-2.02 -2.01 0 4.02 2.02 -2.01zm2.93 -9.27l-1.53 1.53 0 -1.53 1.53 0zm-4.19 12.09l1.55 -1.53 0 1.53 -1.55 0z"/>
    <path class="fil10" d="M23.46 118.17l1.11 0 2.31 0 1.11 0 2.31 0 1.11 0 0 -1.11 0 -12.09 0 -1.11 -1.11 0 -2.31 0 -1.11 0 -2.31 0 -1.11 0 0 1.11 0 12.09 0 1.11zm1.78 -13.2l1.64 1.63 0 -1.63 -1.64 0zm2.93 2.91l2.13 2.12 0 -4.23 -2.13 2.11zm1.62 3.18l-1.8 -1.79 0 3.58 1.8 -1.79zm-3.2 -3.18l-2.02 -2 0 4.01 2.02 -2.01zm-1.61 3.18l1.9 1.89 0 -3.78 -1.9 1.89zm3.19 3.18l2.13 2.11 0 -4.23 -2.13 2.12zm1.26 2.82l-1.44 -1.43 0 1.43 1.44 0zm-2.84 -2.82l-2.02 -2.01 0 4.01 2.02 -2zm2.93 -9.27l-1.53 1.52 0 -1.52 1.53 0zm-4.19 12.09l1.55 -1.54 0 1.54 -1.55 0z"/>
    <path class="fil9" d="M23.46 103.86l1.11 0 2.31 0 1.11 0 2.31 0 1.11 0 0 -1.12 0 -12.08 0 -1.12 -1.11 0 -2.31 0 -1.11 0 -2.31 0 -1.11 0 0 1.12 0 12.08 0 1.12zm1.78 -13.2l1.64 1.62 0 -1.62 -1.64 0zm2.93 2.91l2.13 2.11 0 -4.22 -2.13 2.11zm1.62 3.18l-1.8 -1.79 0 3.57 1.8 -1.78zm-3.2 -3.18l-2.02 -2.01 0 4.02 2.02 -2.01zm-1.61 3.18l1.9 1.89 0 -3.78 -1.9 1.89zm3.19 3.17l2.13 2.12 0 -4.23 -2.13 2.11zm1.26 2.82l-1.44 -1.43 0 1.43 1.44 0zm-2.84 -2.82l-2.02 -2.01 0 4.02 2.02 -2.01zm2.93 -9.26l-1.53 1.52 0 -1.52 1.53 0zm-4.19 12.08l1.55 -1.53 0 1.53 -1.55 0z"/>
    <path class="fil10" d="M23.46 89.54l1.11 0 2.31 0 1.11 0 2.31 0 1.11 0 0 -1.11 0 -12.09 0 -1.11 -1.11 0 -2.31 0 -1.11 0 -2.31 0 -1.11 0 0 1.11 0 12.09 0 1.11zm1.78 -13.2l1.64 1.63 0 -1.63 -1.64 0zm2.93 2.92l2.13 2.11 0 -4.23 -2.13 2.12zm1.62 3.17l-1.8 -1.78 0 3.57 1.8 -1.79zm-3.2 -3.17l-2.02 -2.01 0 4.02 2.02 -2.01zm-1.61 3.17l1.9 1.89 0 -3.78 -1.9 1.89zm3.19 3.18l2.13 2.11 0 -4.22 -2.13 2.11zm1.26 2.82l-1.44 -1.43 0 1.43 1.44 0zm-2.84 -2.82l-2.02 -2.01 0 4.02 2.02 -2.01zm2.93 -9.27l-1.53 1.53 0 -1.53 1.53 0zm-4.19 12.09l1.55 -1.53 0 1.53 -1.55 0z"/>
    <path class="fil9" d="M23.46 75.23l1.11 0 2.31 0 1.11 0 2.31 0 1.11 0 0 -1.11 0 -12.09 0 -1.11 -1.11 0 -2.31 0 -1.11 0 -2.31 0 -1.11 0 0 1.11 0 12.09 0 1.11zm1.78 -13.2l1.64 1.63 0 -1.63 -1.64 0zm2.93 2.91l2.13 2.12 0 -4.23 -2.13 2.11zm1.62 3.18l-1.8 -1.79 0 3.58 1.8 -1.79zm-3.2 -3.18l-2.02 -2 0 4.01 2.02 -2.01zm-1.61 3.18l1.9 1.89 0 -3.78 -1.9 1.89zm3.19 3.18l2.13 2.11 0 -4.23 -2.13 2.12zm1.26 2.82l-1.44 -1.43 0 1.43 1.44 0zm-2.84 -2.82l-2.02 -2.01 0 4.01 2.02 -2zm2.93 -9.27l-1.53 1.52 0 -1.52 1.53 0zm-4.19 12.09l1.55 -1.54 0 1.54 -1.55 0z"/>
    <path class="fil10" d="M23.46 60.92l1.11 0 2.31 0 1.11 0 2.31 0 1.11 0 0 -1.12 0 -12.08 0 -1.12 -1.11 0 -2.31 0 -1.11 0 -2.31 0 -1.11 0 0 1.12 0 12.08 0 1.12zm1.78 -13.2l1.64 1.62 0 -1.62 -1.64 0zm2.93 2.91l2.13 2.11 0 -4.22 -2.13 2.11zm1.62 3.18l-1.8 -1.79 0 3.57 1.8 -1.78zm-3.2 -3.18l-2.02 -2.01 0 4.02 2.02 -2.01zm-1.61 3.18l1.9 1.89 0 -3.78 -1.9 1.89zm3.19 3.17l2.13 2.11 0 -4.22 -2.13 2.11zm1.26 2.82l-1.44 -1.43 0 1.43 1.44 0zm-2.84 -2.82l-2.02 -2.01 0 4.02 2.02 -2.01zm2.93 -9.26l-1.53 1.52 0 -1.52 1.53 0zm-4.19 12.08l1.55 -1.53 0 1.53 -1.55 0z"/>
    <path class="fil9" d="M23.46 46.6l1.11 0 2.31 0 1.11 0 2.31 0 1.11 0 0 -1.11 0 -12.09 0 -1.11 -1.11 0 -2.31 0 -1.11 0 -2.31 0 -1.11 0 0 1.11 0 12.09 0 1.11zm1.78 -13.2l1.64 1.63 0 -1.63 -1.64 0zm2.93 2.92l2.13 2.11 0 -4.23 -2.13 2.12zm1.62 3.17l-1.8 -1.78 0 3.57 1.8 -1.79zm-3.2 -3.17l-2.02 -2.01 0 4.01 2.02 -2zm-1.61 3.17l1.9 1.89 0 -3.78 -1.9 1.89zm3.19 3.18l2.13 2.11 0 -4.22 -2.13 2.11zm1.26 2.82l-1.44 -1.43 0 1.43 1.44 0zm-2.84 -2.82l-2.02 -2.01 0 4.02 2.02 -2.01zm2.93 -9.27l-1.53 1.53 0 -1.53 1.53 0zm-4.19 12.09l1.55 -1.54 0 1.54 -1.55 0z"/>
    <path class="fil10" d="M23.46 32.29l1.11 0 2.31 0 1.11 0 2.31 0 1.11 0 0 -1.11 0 -12.09 0 -1.11 -1.11 0 -2.31 0 -1.11 0 -2.31 0 -1.11 0 0 1.11 0 12.09 0 1.11zm1.78 -13.2l1.64 1.63 0 -1.63 -1.64 0zm2.93 2.91l2.13 2.12 0 -4.23 -2.13 2.11zm1.62 3.18l-1.8 -1.79 0 3.58 1.8 -1.79zm-3.2 -3.18l-2.02 -2.01 0 4.02 2.02 -2.01zm-1.61 3.18l1.9 1.89 0 -3.78 -1.9 1.89zm3.19 3.18l2.13 2.11 0 -4.23 -2.13 2.12zm1.26 2.82l-1.44 -1.43 0 1.43 1.44 0zm-2.84 -2.82l-2.02 -2.01 0 4.01 2.02 -2zm2.93 -9.27l-1.53 1.52 0 -1.52 1.53 0zm-4.19 12.09l1.55 -1.54 0 1.54 -1.55 0z"/>
   </g>
   <path class="fil11" d="M27.54 11l5.76 1.76 0 2.67 0 1.22 0 2.66 -5.87 1.79 -5.86 -1.79 0 -2.66 0 -1.22 0 -2.67c1.95,-0.6 3.91,-1.19 5.86,-1.79l0.11 0.03zm-2.46 1.44l0 1.92 2.03 -0.62 0 -1.92 -2.03 0.62zm0 2.67l0 1.86 2.03 0.62 0 -3.1 -2.03 0.62zm0 2.61l0 1.91 2.35 0.72 2.36 -0.72 0 -1.91 -2.36 0.72 -2.35 -0.72zm-0.65 1.72l0 -1.92 -2.14 -0.65 0 1.91 2.14 0.66zm0 -2.67l0 -1.47 -2.14 0.66 0 0.16 2.14 0.65zm0 -2.22l0 -1.91 -2.14 0.65 0 1.92 2.14 -0.66zm6 -1.91l0 1.91 2.15 0.66 0 -1.92 -2.15 -0.65zm0 2.66l0 1.47 2.15 -0.65 0 -0.16 -2.15 -0.66zm0 2.22l0 1.92 2.15 -0.66 0 -1.91 -2.15 0.65zm-0.64 -0.55l0 -1.86 -2.03 -0.62 0 3.1 2.03 -0.62zm0 -2.61l0 -1.92 -2.03 -0.62 0 1.92 2.03 0.62z"/>
   <path class="fil4" d="M25.09 6.22l1.95 0 0 4.01 -1.95 0 0 -4.01zm2.86 -5.13l1.71 0 0 3.82 -1.71 0 0 -3.82zm-0.12 5.13l1.95 0 0 4.01 -1.95 0 0 -4.01zm-2.62 -5.13l1.71 0 0 3.82 -1.71 0 0 -3.82z"/>
   <circle class="fil12 str1" cx="28.39" cy="21.34" r="3.02"/>
   <ellipse class="fil12 str1" cx="30.74" cy="27.82" rx="1.31" ry="1.63"/>
   <ellipse class="fil12 str1" cx="32.03" cy="30.77" rx="1.29" ry="1.31"/>
   <rect class="fil12 str1" x="32.96" y="24.31" width="2.15" height="5.59"/>
   <ellipse class="fil12 str1" cx="26.18" cy="57.23" rx="1.79" ry="1.91"/>
   <ellipse class="fil12 str1" cx="24.49" cy="115.71" rx="2.07" ry="2.27"/>
   <ellipse class="fil12 str1" cx="24.43" cy="104.42" rx="1.25" ry="1.35"/>
   <ellipse class="fil12 str1" cx="18.27" cy="144.78" rx="2.37" ry="2.43"/>
   <ellipse class="fil12 str1" cx="24.39" cy="135.43" rx="1.21" ry="1.63"/>
   <ellipse class="fil12 str1" cx="26.74" cy="140.15" rx="1.13" ry="1.33"/>
   <ellipse class="fil12 str1" cx="38.15" cy="132.83" rx="1.01" ry="1.37"/>
   <line class="fil0 str0" x1="25.09" y1="11.6" x2="25.09" y2= "0" />
  </g>
 </g>
</svg>
